<mxfile host="app.diagrams.net" modified="2024-03-09T17:00:35.711Z" agent="Mozilla/5.0 (Windows NT 10.0; Win64; x64) AppleWebKit/537.36 (KHTML, like Gecko) Chrome/124.0.0.0 Safari/537.36 Edg/124.0.0.0" etag="ZceNaQYeCvnMu1tDk-zF" version="24.0.4" type="device">
  <diagram name="第 1 页" id="reXgSz46xPnwz0Xs0T2_">
    <mxGraphModel dx="797" dy="501" grid="1" gridSize="10" guides="1" tooltips="1" connect="1" arrows="1" fold="1" page="1" pageScale="1" pageWidth="827" pageHeight="1169" math="0" shadow="0">
      <root>
        <mxCell id="0" />
        <mxCell id="1" parent="0" />
        <mxCell id="npgNBgknMMWez0_4UvPX-8" style="edgeStyle=orthogonalEdgeStyle;rounded=0;orthogonalLoop=1;jettySize=auto;html=1;" edge="1" parent="1" source="npgNBgknMMWez0_4UvPX-1" target="npgNBgknMMWez0_4UvPX-7">
          <mxGeometry relative="1" as="geometry" />
        </mxCell>
        <mxCell id="npgNBgknMMWez0_4UvPX-1" value="&lt;font face=&quot;Garamond&quot; style=&quot;font-size: 18px;&quot;&gt;USB-5V&lt;/font&gt;" style="rounded=0;whiteSpace=wrap;html=1;" vertex="1" parent="1">
          <mxGeometry x="260" y="200" width="100" height="30" as="geometry" />
        </mxCell>
        <mxCell id="npgNBgknMMWez0_4UvPX-4" style="edgeStyle=orthogonalEdgeStyle;rounded=0;orthogonalLoop=1;jettySize=auto;html=1;entryX=0;entryY=0.5;entryDx=0;entryDy=0;" edge="1" parent="1" source="npgNBgknMMWez0_4UvPX-2" target="npgNBgknMMWez0_4UvPX-3">
          <mxGeometry relative="1" as="geometry" />
        </mxCell>
        <mxCell id="npgNBgknMMWez0_4UvPX-2" value="&lt;font face=&quot;Garamond&quot; style=&quot;font-size: 18px;&quot;&gt;BAT-3.7V&lt;/font&gt;" style="rounded=0;whiteSpace=wrap;html=1;" vertex="1" parent="1">
          <mxGeometry x="110" y="240" width="100" height="30" as="geometry" />
        </mxCell>
        <mxCell id="npgNBgknMMWez0_4UvPX-9" style="edgeStyle=orthogonalEdgeStyle;rounded=0;orthogonalLoop=1;jettySize=auto;html=1;entryX=0;entryY=0.5;entryDx=0;entryDy=0;" edge="1" parent="1" source="npgNBgknMMWez0_4UvPX-3" target="npgNBgknMMWez0_4UvPX-7">
          <mxGeometry relative="1" as="geometry" />
        </mxCell>
        <mxCell id="npgNBgknMMWez0_4UvPX-3" value="&lt;font face=&quot;Garamond&quot; style=&quot;font-size: 18px;&quot;&gt;BAT-3.7V&lt;/font&gt;" style="rounded=0;whiteSpace=wrap;html=1;" vertex="1" parent="1">
          <mxGeometry x="260" y="240" width="100" height="30" as="geometry" />
        </mxCell>
        <mxCell id="npgNBgknMMWez0_4UvPX-6" value="&lt;font style=&quot;font-size: 13px;&quot; face=&quot;Garamond&quot;&gt;BOOST&lt;/font&gt;" style="text;html=1;align=center;verticalAlign=middle;whiteSpace=wrap;rounded=0;" vertex="1" parent="1">
          <mxGeometry x="204" y="230" width="60" height="30" as="geometry" />
        </mxCell>
        <mxCell id="npgNBgknMMWez0_4UvPX-12" style="edgeStyle=orthogonalEdgeStyle;rounded=0;orthogonalLoop=1;jettySize=auto;html=1;" edge="1" parent="1" source="npgNBgknMMWez0_4UvPX-7" target="npgNBgknMMWez0_4UvPX-11">
          <mxGeometry relative="1" as="geometry" />
        </mxCell>
        <mxCell id="npgNBgknMMWez0_4UvPX-7" value="&lt;font face=&quot;Garamond&quot; style=&quot;font-size: 18px;&quot;&gt;VCC-5V&lt;/font&gt;" style="rounded=0;whiteSpace=wrap;html=1;" vertex="1" parent="1">
          <mxGeometry x="414" y="220" width="100" height="30" as="geometry" />
        </mxCell>
        <mxCell id="npgNBgknMMWez0_4UvPX-10" value="&lt;font style=&quot;font-size: 13px;&quot; face=&quot;Garamond&quot;&gt;SWITCH&lt;/font&gt;" style="text;html=1;align=center;verticalAlign=middle;whiteSpace=wrap;rounded=0;" vertex="1" parent="1">
          <mxGeometry x="360" y="190" width="60" height="30" as="geometry" />
        </mxCell>
        <mxCell id="npgNBgknMMWez0_4UvPX-11" value="&lt;font face=&quot;Garamond&quot; style=&quot;font-size: 18px;&quot;&gt;VCC-5V&lt;/font&gt;" style="rounded=0;whiteSpace=wrap;html=1;" vertex="1" parent="1">
          <mxGeometry x="560" y="220" width="100" height="30" as="geometry" />
        </mxCell>
        <mxCell id="npgNBgknMMWez0_4UvPX-13" value="&lt;font style=&quot;font-size: 13px;&quot; face=&quot;Garamond&quot;&gt;AMS1117-3.3&lt;/font&gt;" style="text;html=1;align=center;verticalAlign=middle;whiteSpace=wrap;rounded=0;" vertex="1" parent="1">
          <mxGeometry x="510" y="200" width="60" height="30" as="geometry" />
        </mxCell>
        <mxCell id="npgNBgknMMWez0_4UvPX-14" value="&lt;font style=&quot;font-size: 13px;&quot; face=&quot;Garamond&quot;&gt;TP5400&lt;/font&gt;" style="text;html=1;align=center;verticalAlign=middle;whiteSpace=wrap;rounded=0;" vertex="1" parent="1">
          <mxGeometry x="204" y="250" width="60" height="30" as="geometry" />
        </mxCell>
        <mxCell id="npgNBgknMMWez0_4UvPX-15" value="" style="endArrow=classic;html=1;rounded=0;exitX=0;exitY=0.5;exitDx=0;exitDy=0;entryX=0.5;entryY=0;entryDx=0;entryDy=0;" edge="1" parent="1" source="npgNBgknMMWez0_4UvPX-1" target="npgNBgknMMWez0_4UvPX-2">
          <mxGeometry width="50" height="50" relative="1" as="geometry">
            <mxPoint x="170" y="200" as="sourcePoint" />
            <mxPoint x="220" y="150" as="targetPoint" />
          </mxGeometry>
        </mxCell>
        <mxCell id="npgNBgknMMWez0_4UvPX-16" value="&lt;font style=&quot;font-size: 13px;&quot; face=&quot;Garamond&quot;&gt;CHARE&lt;/font&gt;" style="text;html=1;align=center;verticalAlign=middle;whiteSpace=wrap;rounded=0;" vertex="1" parent="1">
          <mxGeometry x="180" y="200" width="60" height="30" as="geometry" />
        </mxCell>
      </root>
    </mxGraphModel>
  </diagram>
</mxfile>
